<svg width="149" height="154" viewBox="0 0 149 154" fill="none" xmlns="http://www.w3.org/2000/svg">
<g clip-path="url(#clip0_43_7)">
<path d="M142.792 70.5681C141.145 70.5681 139.566 71.2439 138.402 72.447C137.238 73.6501 136.583 75.2819 136.583 76.9833C136.634 91.9006 131.669 106.373 122.537 117.927C113.406 129.48 100.674 137.398 86.5188 140.327C72.3635 143.255 57.6634 141.013 44.931 133.982C32.1986 126.952 22.2243 115.57 16.7132 101.783C11.202 87.9952 10.496 72.6577 14.7158 58.3919C18.9357 44.1261 27.8194 31.8176 39.8486 23.5702C51.8778 15.3228 66.3055 11.6486 80.6659 13.1755C95.0262 14.7025 108.428 21.3358 118.579 31.9417C118.375 31.9992 118.168 32.0442 117.958 32.0764H99.3334C97.6869 32.0764 96.1078 32.7523 94.9435 33.9554C93.7792 35.1585 93.1251 36.7902 93.1251 38.4917C93.1251 40.1931 93.7792 41.8249 94.9435 43.0279C96.1078 44.231 97.6869 44.9069 99.3334 44.9069H117.958C122.898 44.9069 127.635 42.8793 131.128 39.27C134.621 35.6607 136.583 30.7654 136.583 25.6611V6.41528C136.583 4.71384 135.929 3.08209 134.765 1.87899C133.601 0.675893 132.022 0 130.375 0C128.729 0 127.149 0.675893 125.985 1.87899C124.821 3.08209 124.167 4.71384 124.167 6.41528V19.6628C111.456 7.91985 95.2292 1.04034 78.1994 0.173871C61.1695 -0.692601 44.3676 4.50646 30.6015 14.9023C16.8353 25.2981 6.93876 40.2609 2.56555 57.2904C-1.80766 74.3199 -0.392603 92.3844 6.57426 108.465C13.5411 124.546 25.6377 137.67 40.8428 145.642C56.0478 153.615 73.4401 155.954 90.1134 152.268C106.787 148.583 121.731 139.096 132.449 125.393C143.167 111.691 149.009 94.6022 149 76.9833C149 75.2819 148.346 73.6501 147.182 72.447C146.017 71.2439 144.438 70.5681 142.792 70.5681ZM74.5001 38.4917C72.8536 38.4917 71.2745 39.1676 70.1102 40.3707C68.9459 41.5738 68.2918 43.2055 68.2918 44.9069V76.9833C68.2921 78.6846 68.9465 80.3161 70.1108 81.5189L88.7358 100.765C89.9067 101.933 91.475 102.58 93.1028 102.565C94.7306 102.551 96.2877 101.876 97.4388 100.687C98.5899 99.4972 99.2428 97.8881 99.2569 96.2061C99.2711 94.524 98.6453 92.9035 97.5144 91.6936L80.7084 74.3274V44.9069C80.7084 43.2055 80.0544 41.5738 78.8901 40.3707C77.7258 39.1676 76.1467 38.4917 74.5001 38.4917Z" fill="white"/>
</g>
<defs>
<clipPath id="clip0_43_7">
<rect width="149" height="153.967" fill="white"/>
</clipPath>
</defs>
</svg>
